<?xml version="1.0" encoding="UTF-8" standalone="no"?>
<!DOCTYPE svg PUBLIC "-//W3C//DTD SVG 1.1//EN" "http://www.w3.org/Graphics/SVG/1.1/DTD/svg11.dtd">
<svg version="1.1" xmlns="http://www.w3.org/2000/svg" xmlns:xlink="http://www.w3.org/1999/xlink" preserveAspectRatio="xMidYMid meet" viewBox="0 0 640 640" width="640" height="640"><defs><path d="" id="a1DY7MBFfB"></path><path d="M597.62 192.38L559 253.67L322.87 253.67L279.85 325.21L515.58 331.48L407.98 518.15L327.15 518.15L401.44 392.12L242.12 392.12L127.01 589.49L42.38 589.49L271.85 192.38L597.62 192.38Z" id="a8xMFeRNm"></path><path d="" id="da17JYPrv"></path><path d="M217.31 249.45L151.11 249.45L105.87 319.59L34.16 319.59L116.53 192.38L253.03 192.38L217.31 249.45Z" id="b3KJw4THSQ"></path><path d="M450.58 115.28C450.58 152.66 420.24 183 382.86 183C345.49 183 315.14 152.66 315.14 115.28C315.14 77.91 345.49 47.56 382.86 47.56C420.24 47.56 450.58 77.91 450.58 115.28Z" id="e2RxW0t0IW"></path></defs><g><g><g><g><use xlink:href="#a1DY7MBFfB" opacity="1" fill-opacity="0" stroke="#000000" stroke-width="1" stroke-opacity="1"></use></g></g><g><use xlink:href="#a8xMFeRNm" opacity="1" fill="#1eabce" fill-opacity="1"></use><g><use xlink:href="#a8xMFeRNm" opacity="1" fill-opacity="0" stroke="#000000" stroke-width="1" stroke-opacity="1"></use></g></g><g><g><use xlink:href="#da17JYPrv" opacity="1" fill-opacity="0" stroke="#000000" stroke-width="1" stroke-opacity="1"></use></g></g><g><use xlink:href="#b3KJw4THSQ" opacity="1" fill="#024e5e" fill-opacity="1"></use><g><use xlink:href="#b3KJw4THSQ" opacity="1" fill-opacity="0" stroke="#000000" stroke-width="1" stroke-opacity="1"></use></g></g><g><use xlink:href="#e2RxW0t0IW" opacity="1" fill="#024e5e" fill-opacity="1"></use><g><use xlink:href="#e2RxW0t0IW" opacity="1" fill-opacity="0" stroke="#000000" stroke-width="1" stroke-opacity="1"></use></g></g></g></g></svg>